<svg id="svg" xmlns="http://www.w3.org/2000/svg" xmlns:xlink="http://www.w3.org/1999/xlink" width="400" height="400" viewBox="0, 0, 400,400"><g id="svgg"><path id="path0" d="M0.000 125.391 L 0.000 150.391 37.500 150.391 L 75.000 150.391 75.000 200.391 L 75.000 250.391 37.500 250.391 L 0.000 250.391 0.000 275.391 L 0.000 300.391 100.097 300.391 L 200.194 300.391 232.323 268.263 L 264.453 236.135 296.583 268.263 L 328.713 300.391 364.356 300.391 L 400.000 300.391 400.000 275.391 L 400.000 250.391 375.292 250.391 L 350.584 250.391 325.487 225.292 L 300.391 200.193 325.294 175.292 L 350.198 150.391 375.099 150.391 L 400.000 150.391 400.000 125.391 L 400.000 100.391 364.161 100.391 L 328.322 100.391 296.388 132.323 L 264.453 164.256 232.519 132.323 L 200.584 100.391 100.292 100.391 L 0.000 100.391 0.000 125.391 M203.615 175.291 L 228.518 200.191 203.420 225.291 L 178.323 250.391 151.661 250.391 L 125.000 250.391 125.000 200.391 L 125.000 150.391 151.856 150.391 L 178.712 150.391 203.615 175.291 " stroke="none" fill="#000000" fill-rule="evenodd"></path></g></svg>